#Comment line ignore any data following # character 
#Hierarchical Translation and Rotation (.htr) file 
[Header]	
#Header keywords are followed by a single value 
FileType HTR		#Single word string
DataType HTRS		#Translation followed by rotation and scale data
FileVersion 1		#integer
NumSegments 84		#integer
NumFrames 2		#integer
DataFrameRate 30		#integer, data frame rate in this file
EulerRotationOrder ZYX
CalibrationUnits mm
RotationUnits Degrees
GlobalAxisofGravity Y
BoneLengthAxis Y
ScaleFactor 1.00
[SegmentNames&Hierarchy]
#CHILD	PARENT
MASTER GLOBAL
root MASTER
chest root
L_mid_tent01 root
R_mid_tent01 root
spine01 root
Bip01_Neck chest
L_humerus chest
R_humerus chest
weapon_bone chest
Bip01_Head Bip01_Neck
eye_left_bone Bip01_Head
eye_right_bone Bip01_Head
L_forearm L_humerus
L_front_hand L_forearm
L_weapon_bone L_forearm
L_front_hand01_01 L_front_hand
L_front_hand02_01 L_front_hand
L_front_hand03_01 L_front_hand
L_front_hand01_02 L_front_hand01_01
L_front_hand02_02 L_front_hand02_01
L_front_hand03_02 L_front_hand03_01
R_forearm R_humerus
R_front_hand R_forearm
R_weapon_bone R_forearm
R_front_hand01_01 R_front_hand
R_front_hand02_01 R_front_hand
R_front_hand03_01 R_front_hand
R_front_hand01_02 R_front_hand01_01
R_front_hand02_02 R_front_hand02_01
R_front_hand03_02 R_front_hand03_01
null_rope01_connect L_mid_tent01
Rope1_Seg01 null_rope01_connect
Rope1_Seg02 Rope1_Seg01
Rope1_Seg03 Rope1_Seg02
Rope1_Seg04 Rope1_Seg03
Rope1_Seg05 Rope1_Seg04
Rope1_Seg06 Rope1_Seg05
Rope1_Seg07 Rope1_Seg06
Rope1_Seg09 Rope1_Seg07
L_mid_hand01 Rope1_Seg09
L_mid_hand02 Rope1_Seg09
L_mid_hand03 Rope1_Seg09
null_rope02_connect R_mid_tent01
Rope2_Seg01 null_rope02_connect
Rope2_Seg02 Rope2_Seg01
Rope2_Seg03 Rope2_Seg02
Rope2_Seg04 Rope2_Seg03
Rope2_Seg05 Rope2_Seg04
Rope2_Seg06 Rope2_Seg05
Rope2_Seg07 Rope2_Seg06
Rope2_Seg09 Rope2_Seg07
R_mid_hand01 Rope2_Seg09
R_mid_hand02 Rope2_Seg09
R_mid_hand03 Rope2_Seg09
spine02 spine01
spine03 spine02
pelvis spine03
null_rope03_connect pelvis
null_rope04_connect pelvis
Rope3_Seg01 null_rope03_connect
Rope3_Seg02 Rope3_Seg01
Rope3_Seg03 Rope3_Seg02
Rope3_Seg04 Rope3_Seg03
Rope3_Seg05 Rope3_Seg04
Rope3_Seg06 Rope3_Seg05
Rope3_Seg07 Rope3_Seg06
Rope3_Seg08 Rope3_Seg07
Rope3_Seg09 Rope3_Seg08
R_rear_hand01 Rope3_Seg09
R_rear_hand02 Rope3_Seg09
R_rear_hand03 Rope3_Seg09
Rope4_Seg01 null_rope04_connect
Rope4_Seg02 Rope4_Seg01
Rope4_Seg03 Rope4_Seg02
Rope4_Seg04 Rope4_Seg03
Rope4_Seg05 Rope4_Seg04
Rope4_Seg06 Rope4_Seg05
Rope4_Seg07 Rope4_Seg06
Rope4_Seg08 Rope4_Seg07
Rope4_Seg09 Rope4_Seg08
L_rear_hand01 Rope4_Seg09
L_rear_hand02 Rope4_Seg09
L_rear_hand03 Rope4_Seg09
[BasePosition]
#SegmentName Tx, Ty, Tz, Rx, Ry, Rz, BoneLength
MASTER 0.000000 0.000000 0.000000 -90.000000 0.000000 0.000000 10.000000 
root 0.000000 0.000000 0.000000 0.000000 0.000000 0.000000 10.000000 
chest 0.000000 0.000000 0.000000 0.000000 0.000000 0.000000 10.000000 
L_mid_tent01 0.000000 0.000000 0.000000 0.000000 0.000000 0.000000 10.000000 
R_mid_tent01 0.000000 0.000000 0.000000 0.000000 0.000000 0.000000 10.000000 
spine01 0.000000 0.000000 0.000000 0.000000 0.000000 0.000000 10.000000 
Bip01_Neck 0.000000 0.000000 0.000000 0.000000 0.000000 0.000000 10.000000 
L_humerus 0.000000 0.000000 0.000000 0.000000 0.000000 0.000000 10.000000 
R_humerus 0.000000 0.000000 0.000000 0.000000 0.000000 0.000000 10.000000 
weapon_bone 0.000000 0.000000 0.000000 0.000000 0.000000 0.000000 10.000000 
Bip01_Head 0.000000 0.000000 0.000000 0.000000 0.000000 0.000000 10.000000 
eye_left_bone 0.000000 0.000000 0.000000 0.000000 0.000000 0.000000 10.000000 
eye_right_bone 0.000000 0.000000 0.000000 0.000000 0.000000 0.000000 10.000000 
L_forearm 0.000000 0.000000 0.000000 0.000000 0.000000 0.000000 10.000000 
L_front_hand 0.000000 0.000000 0.000000 0.000000 0.000000 0.000000 10.000000 
L_weapon_bone 0.000000 0.000000 0.000000 0.000000 0.000000 0.000000 10.000000 
L_front_hand01_01 0.000000 0.000000 0.000000 0.000000 0.000000 0.000000 10.000000 
L_front_hand02_01 0.000000 0.000000 0.000000 0.000000 0.000000 0.000000 10.000000 
L_front_hand03_01 0.000000 0.000000 0.000000 0.000000 0.000000 0.000000 10.000000 
L_front_hand01_02 0.000000 0.000000 0.000000 0.000000 0.000000 0.000000 10.000000 
L_front_hand02_02 0.000000 0.000000 0.000000 0.000000 0.000000 0.000000 10.000000 
L_front_hand03_02 0.000000 0.000000 0.000000 0.000000 0.000000 0.000000 10.000000 
R_forearm 0.000000 0.000000 0.000000 0.000000 0.000000 0.000000 10.000000 
R_front_hand 0.000000 0.000000 0.000000 0.000000 0.000000 0.000000 10.000000 
R_weapon_bone 0.000000 0.000000 0.000000 0.000000 0.000000 0.000000 10.000000 
R_front_hand01_01 0.000000 0.000000 0.000000 0.000000 0.000000 0.000000 10.000000 
R_front_hand02_01 0.000000 0.000000 0.000000 0.000000 0.000000 0.000000 10.000000 
R_front_hand03_01 0.000000 0.000000 0.000000 0.000000 0.000000 0.000000 10.000000 
R_front_hand01_02 0.000000 0.000000 0.000000 0.000000 0.000000 0.000000 10.000000 
R_front_hand02_02 0.000000 0.000000 0.000000 0.000000 0.000000 0.000000 10.000000 
R_front_hand03_02 0.000000 0.000000 0.000000 0.000000 0.000000 0.000000 10.000000 
null_rope01_connect 0.000000 0.000000 0.000000 0.000000 0.000000 0.000000 10.000000 
Rope1_Seg01 0.000000 0.000000 0.000000 0.000000 0.000000 0.000000 10.000000 
Rope1_Seg02 0.000000 0.000000 0.000000 0.000000 0.000000 0.000000 10.000000 
Rope1_Seg03 0.000000 0.000000 0.000000 0.000000 0.000000 0.000000 10.000000 
Rope1_Seg04 0.000000 0.000000 0.000000 0.000000 0.000000 0.000000 10.000000 
Rope1_Seg05 0.000000 0.000000 0.000000 0.000000 0.000000 0.000000 10.000000 
Rope1_Seg06 0.000000 0.000000 0.000000 0.000000 0.000000 0.000000 10.000000 
Rope1_Seg07 0.000000 0.000000 0.000000 0.000000 0.000000 0.000000 10.000000 
Rope1_Seg09 0.000000 0.000000 0.000000 0.000000 0.000000 0.000000 10.000000 
L_mid_hand01 0.000000 0.000000 0.000000 0.000000 0.000000 0.000000 10.000000 
L_mid_hand02 0.000000 0.000000 0.000000 0.000000 0.000000 0.000000 10.000000 
L_mid_hand03 0.000000 0.000000 0.000000 0.000000 0.000000 0.000000 10.000000 
null_rope02_connect 0.000000 0.000000 0.000000 0.000000 0.000000 0.000000 10.000000 
Rope2_Seg01 0.000000 0.000000 0.000000 0.000000 0.000000 0.000000 10.000000 
Rope2_Seg02 0.000000 0.000000 0.000000 0.000000 0.000000 0.000000 10.000000 
Rope2_Seg03 0.000000 0.000000 0.000000 0.000000 0.000000 0.000000 10.000000 
Rope2_Seg04 0.000000 0.000000 0.000000 0.000000 0.000000 0.000000 10.000000 
Rope2_Seg05 0.000000 0.000000 0.000000 0.000000 0.000000 0.000000 10.000000 
Rope2_Seg06 0.000000 0.000000 0.000000 0.000000 0.000000 0.000000 10.000000 
Rope2_Seg07 0.000000 0.000000 0.000000 0.000000 0.000000 0.000000 10.000000 
Rope2_Seg09 0.000000 0.000000 0.000000 0.000000 0.000000 0.000000 10.000000 
R_mid_hand01 0.000000 0.000000 0.000000 0.000000 0.000000 0.000000 10.000000 
R_mid_hand02 0.000000 0.000000 0.000000 0.000000 0.000000 0.000000 10.000000 
R_mid_hand03 0.000000 0.000000 0.000000 0.000000 0.000000 0.000000 10.000000 
spine02 0.000000 0.000000 0.000000 0.000000 0.000000 0.000000 10.000000 
spine03 0.000000 0.000000 0.000000 0.000000 0.000000 0.000000 10.000000 
pelvis 0.000000 0.000000 0.000000 0.000000 0.000000 0.000000 10.000000 
null_rope03_connect 0.000000 0.000000 0.000000 0.000000 0.000000 0.000000 10.000000 
null_rope04_connect 0.000000 0.000000 0.000000 0.000000 0.000000 0.000000 10.000000 
Rope3_Seg01 0.000000 0.000000 0.000000 0.000000 0.000000 0.000000 10.000000 
Rope3_Seg02 0.000000 0.000000 0.000000 0.000000 0.000000 0.000000 10.000000 
Rope3_Seg03 0.000000 0.000000 0.000000 0.000000 0.000000 0.000000 10.000000 
Rope3_Seg04 0.000000 0.000000 0.000000 0.000000 0.000000 0.000000 10.000000 
Rope3_Seg05 0.000000 0.000000 0.000000 0.000000 0.000000 0.000000 10.000000 
Rope3_Seg06 0.000000 0.000000 0.000000 0.000000 0.000000 0.000000 10.000000 
Rope3_Seg07 0.000000 0.000000 0.000000 0.000000 0.000000 0.000000 10.000000 
Rope3_Seg08 0.000000 0.000000 0.000000 0.000000 0.000000 0.000000 10.000000 
Rope3_Seg09 0.000000 0.000000 0.000000 0.000000 0.000000 0.000000 10.000000 
R_rear_hand01 0.000000 0.000000 0.000000 0.000000 0.000000 0.000000 10.000000 
R_rear_hand02 0.000000 0.000000 0.000000 0.000000 0.000000 0.000000 10.000000 
R_rear_hand03 0.000000 0.000000 0.000000 0.000000 0.000000 0.000000 10.000000 
Rope4_Seg01 0.000000 0.000000 0.000000 0.000000 0.000000 0.000000 10.000000 
Rope4_Seg02 0.000000 0.000000 0.000000 0.000000 0.000000 0.000000 10.000000 
Rope4_Seg03 0.000000 0.000000 0.000000 0.000000 0.000000 0.000000 10.000000 
Rope4_Seg04 0.000000 0.000000 0.000000 0.000000 0.000000 0.000000 10.000000 
Rope4_Seg05 0.000000 0.000000 0.000000 0.000000 0.000000 0.000000 10.000000 
Rope4_Seg06 0.000000 0.000000 0.000000 0.000000 0.000000 0.000000 10.000000 
Rope4_Seg07 0.000000 0.000000 0.000000 0.000000 0.000000 0.000000 10.000000 
Rope4_Seg08 0.000000 0.000000 0.000000 0.000000 0.000000 0.000000 10.000000 
Rope4_Seg09 0.000000 0.000000 0.000000 0.000000 0.000000 0.000000 10.000000 
L_rear_hand01 0.000000 0.000000 0.000000 0.000000 0.000000 0.000000 10.000000 
L_rear_hand02 0.000000 0.000000 0.000000 0.000000 0.000000 0.000000 10.000000 
L_rear_hand03 0.000000 0.000000 0.000000 0.000000 0.000000 0.000000 10.000000 
#Beginning of Data. Separated by tabs
#Fr	Tx	Ty	Tz	Rx	Ry	Rz	SF
[MASTER]
10 0.000411 -3814.675049 -411.995148 0.001660 0.001660 0.001660 3836.858887
11 0.000447 -4152.939941 -419.937256 0.001660 0.001660 0.001660 4174.117188
[root]
10 -37.882366 -51.398621 1502.621582 -86.203918 -25.795229 -99.169029 1503.977417
11 -37.769489 -52.178497 1502.608032 -90.071983 -29.715115 -96.110153 1503.988159
[chest]
10 -84.512650 -34.090519 0.000000 18.305931 -6.713930 149.240295 91.129311
11 -84.512650 -34.090519 0.000000 11.273823 -14.721165 153.377853 91.129311
[L_mid_tent01]
10 27.299141 22.179106 -249.918716 2.095419 -2.463939 78.687622 252.381699
11 27.299145 22.179106 -249.918716 2.321126 3.199204 79.046661 252.381699
[R_mid_tent01]
10 23.228794 24.509907 226.238495 165.777695 -0.481397 72.672546 228.744751
11 23.228794 24.509907 226.238495 165.190048 -8.274480 75.346710 228.744751
[spine01]
10 -0.361383 -0.195265 0.000000 0.002053 0.001137 32.040215 0.410763
11 -0.361383 -0.195265 0.000000 0.002050 0.001143 31.695620 0.410763
[Bip01_Neck]
10 165.484543 71.581718 0.000119 176.643677 -1.657967 43.431911 180.302734
11 165.484543 71.581718 0.000119 176.643677 -1.657967 43.431911 180.302734
[L_humerus]
10 -13.983130 -135.272980 -120.471481 164.899124 27.437586 -64.912933 181.680161
11 -13.983130 -135.272980 -120.471481 162.769058 21.894840 -66.003853 181.680161
[R_humerus]
10 -13.983309 -135.273102 125.287651 -178.221542 -19.031054 -84.453552 184.909012
11 -13.983309 -135.273102 125.287651 -176.955414 -11.787654 -86.163376 184.909012
[weapon_bone]
10 235.964890 -300.705902 0.000000 0.000000 -89.951546 -128.212341 382.234833
11 235.964890 -300.705902 0.000000 0.000000 -89.951546 -128.212341 382.234833
[Bip01_Head]
10 213.564148 185.381989 16.082302 31.888914 0.451651 -43.898746 283.257416
11 213.500519 185.559265 13.793326 31.998299 0.180056 -43.899742 283.204803
[eye_left_bone]
10 -24.626970 125.451866 -64.772606 0.000000 -90.000000 -99.840431 143.318359
11 -24.626970 125.451866 -64.772606 0.000000 -90.000000 -99.840431 143.318359
[eye_right_bone]
10 -24.626970 125.451866 64.327362 0.000000 -89.965736 80.156380 143.117676
11 -24.626970 125.451866 64.327362 0.000000 -89.965736 80.156380 143.117676
[L_forearm]
10 322.776093 0.000000 -0.000119 0.000163 -0.002342 -97.949028 322.776093
11 322.776093 0.000000 -0.000119 0.000119 -0.002344 -95.807457 322.776093
[L_front_hand]
10 241.149185 -0.042021 -3.300071 57.054554 -1.836620 -27.424770 241.171753
11 241.149185 -0.042021 -3.300071 123.245972 -1.835681 -27.422699 241.171753
[L_weapon_bone]
10 156.183838 0.000000 0.000000 0.000014 0.000007 0.000001 156.183838
11 156.183838 0.000000 0.000000 0.000014 0.000007 0.000001 156.183838
[L_front_hand01_01]
10 86.095154 20.947098 -0.655860 -0.366594 -0.477154 75.385574 88.609184
11 86.095154 20.947098 -0.655860 -0.366594 -0.477154 75.385551 88.609184
[L_front_hand02_01]
10 86.935165 -11.437475 24.513514 154.399796 -59.883835 -61.369587 91.046425
11 86.935165 -11.437475 24.513514 154.399796 -59.883820 -61.369553 91.046425
[L_front_hand03_01]
10 86.637497 -14.123976 -20.424902 -153.913849 58.118122 -62.702866 90.126129
11 86.637497 -14.123976 -20.424902 -153.913818 58.118122 -62.702839 90.126129
[L_front_hand01_02]
10 71.020905 -0.000179 0.000030 0.001491 0.001813 -11.123809 71.020905
11 71.020905 -0.000179 0.000030 0.001534 0.001777 -8.378856 71.020905
[L_front_hand02_02]
10 71.020927 -0.000119 0.000060 0.001491 0.001813 -11.123809 71.020927
11 71.020927 -0.000119 0.000060 0.001534 0.001777 -8.378856 71.020927
[L_front_hand03_02]
10 71.020905 -0.000060 0.000060 0.001491 0.001813 -11.123809 71.020905
11 71.020905 -0.000060 0.000060 0.001534 0.001777 -8.378856 71.020905
[R_forearm]
10 322.776428 -0.000060 0.000030 0.212591 0.019482 -96.100174 322.776428
11 322.776428 -0.000060 0.000030 0.209504 0.012586 -94.339050 322.776428
[R_front_hand]
10 238.847015 -0.006795 2.210259 102.740738 -10.643182 -26.314632 238.857239
11 238.847015 -0.006795 2.210259 34.448311 -10.644227 -26.313742 238.857239
[R_weapon_bone]
10 155.664093 0.002503 -0.000030 0.003487 0.001180 -90.988930 155.664078
11 155.664093 0.002503 -0.000030 0.003487 0.001180 -90.988930 155.664078
[R_front_hand01_01]
10 87.624611 14.231146 22.918642 -154.633499 -59.950619 61.746044 91.683487
11 87.624611 14.231146 22.918642 -154.633484 -59.950607 61.746025 91.683487
[R_front_hand02_01]
10 89.356956 14.367283 -19.491137 154.602661 58.302849 63.744389 92.579636
11 89.356956 14.367283 -19.491137 154.602661 58.302864 63.744389 92.579636
[R_front_hand03_01]
10 87.286232 -22.307278 -0.143439 0.162155 -0.423168 -75.767921 90.091743
11 87.286232 -22.307278 -0.143439 0.162155 -0.423168 -75.767906 90.091743
[R_front_hand01_02]
10 71.020905 0.000060 0.000119 0.001813 0.001491 11.122174 71.020905
11 71.020905 0.000060 0.000119 0.001777 0.001534 8.377226 71.020905
[R_front_hand02_02]
10 71.020844 -0.000030 -0.000119 0.001813 0.001491 11.122174 71.020836
11 71.020844 -0.000030 -0.000119 0.001777 0.001534 8.377226 71.020836
[R_front_hand03_02]
10 71.020905 0.000000 0.000030 0.001813 0.001491 11.122174 71.020905
11 71.020905 0.000000 0.000030 0.001777 0.001534 8.377226 71.020905
[null_rope01_connect]
10 328.732483 0.000000 -0.000238 -49.007568 -79.839760 86.549583 328.732483
11 328.732483 0.000000 -0.000238 -95.605774 -79.960777 136.291031 328.732483
[Rope1_Seg01]
10 -0.000012 -0.000026 0.000153 128.831696 69.138443 149.688187 0.000155
11 -0.000014 -0.000025 0.000153 131.901077 39.416527 173.019333 0.000155
[Rope1_Seg02]
10 139.999863 -0.000179 0.000000 -1.798880 -17.622202 15.562079 139.999863
11 139.999863 -0.000179 0.000000 6.138177 -27.437710 3.335999 139.999863
[Rope1_Seg03]
10 139.999924 0.000060 -0.000060 -2.378223 -15.324410 13.960114 139.999924
11 139.999924 0.000060 -0.000060 -1.025452 -25.430836 5.066402 139.999924
[Rope1_Seg04]
10 139.999924 -0.000060 -0.000119 -1.465306 -8.691628 7.195956 139.999924
11 139.999924 -0.000060 -0.000119 -3.029274 -14.681211 5.157158 139.999924
[Rope1_Seg05]
10 139.999832 0.000119 -0.000060 -1.299051 -5.176356 3.462262 139.999832
11 139.999832 0.000119 -0.000060 -3.059641 -10.892904 6.011194 139.999832
[Rope1_Seg06]
10 139.999954 0.000119 -0.000060 -1.311511 -4.496725 3.053090 139.999954
11 139.999954 0.000119 -0.000060 -3.368115 -7.829664 3.218107 139.999954
[Rope1_Seg07]
10 139.999985 0.000060 0.000000 -1.175618 -3.453184 2.278774 139.999985
11 139.999985 0.000060 0.000000 -2.961416 -5.288803 1.753070 139.999985
[Rope1_Seg09]
10 121.602913 0.000119 -0.000089 -89.793175 -1.359789 0.847147 121.602913
11 121.602913 0.000119 -0.000089 -89.793175 -1.359789 0.847147 121.602913
[L_mid_hand01]
10 103.859421 1.038730 8.195221 109.301483 -41.408253 -13.576801 104.187431
11 103.859421 1.038730 8.195221 110.016701 -43.583408 -14.630757 104.187431
[L_mid_hand02]
10 105.572853 -4.139662 -10.864139 -147.153671 31.943642 -38.737038 106.211075
11 105.572853 -4.139662 -10.864139 -148.402466 33.171719 -41.059582 106.211075
[L_mid_hand03]
10 104.641464 17.579376 -3.913581 -14.087292 12.528422 44.741470 106.179977
11 104.641464 17.579376 -3.913581 -13.575852 13.082145 47.042416 106.179977
[null_rope02_connect]
10 328.732849 0.000179 -0.000119 -28.003445 83.229774 108.840668 328.732849
11 328.732849 0.000179 -0.000119 -65.465530 78.844597 69.345993 328.732849
[Rope2_Seg01]
10 0.000095 0.000274 0.000000 -35.255123 36.675709 73.021339 0.000290
11 0.000095 0.000292 0.000000 -41.258549 40.518280 63.420143 0.000307
[Rope2_Seg02]
10 139.999741 -0.000060 -0.000119 0.682555 -8.674568 10.365315 139.999756
11 139.999741 -0.000060 -0.000119 -0.560021 -13.476150 15.126311 139.999756
[Rope2_Seg03]
10 140.000107 0.000030 0.000000 2.330965 -8.194546 10.413182 140.000107
11 140.000107 0.000030 0.000000 3.320457 -12.817365 16.276691 140.000107
[Rope2_Seg04]
10 139.999802 0.000000 -0.000060 9.254321 -7.204669 16.594362 139.999802
11 139.999802 0.000000 -0.000060 12.850127 -8.587425 18.708191 139.999802
[Rope2_Seg05]
10 139.999985 -0.000060 0.000119 5.266850 -3.018288 6.770947 139.999985
11 139.999985 -0.000060 0.000119 1.833654 -3.154588 3.029280 139.999985
[Rope2_Seg06]
10 139.999893 -0.000030 -0.000119 -7.950983 -4.541032 -5.291314 139.999893
11 139.999893 -0.000030 -0.000119 -15.623452 -5.834748 -10.215581 139.999893
[Rope2_Seg07]
10 139.999893 0.000060 -0.000060 -22.008490 -6.254934 -21.667934 139.999893
11 139.999893 0.000060 -0.000060 -23.866333 -3.441476 -24.963114 139.999893
[Rope2_Seg09]
10 121.338966 0.000089 -0.000060 33.793236 -1.359788 -0.847141 121.338966
11 121.338966 0.000089 -0.000060 33.793236 -1.359788 -0.847141 121.338966
[R_mid_hand01]
10 104.680779 11.144459 -10.335981 -34.826851 34.540035 41.908733 105.778534
11 104.680779 11.144459 -10.335981 -36.116539 33.174709 39.598408 105.778534
[R_mid_hand02]
10 104.070427 2.443552 8.231699 68.824310 -46.622627 16.260357 104.424065
11 104.070427 2.443552 8.231699 69.680672 -44.419228 15.065828 104.424065
[R_mid_hand03]
10 106.028137 -11.221827 -5.996406 -170.883759 12.973568 -51.735516 106.788818
11 106.028137 -11.221827 -5.996406 -170.354065 12.593575 -49.350609 106.788818
[spine02]
10 129.756927 0.001550 0.000119 0.530543 -4.024861 -15.384443 129.756927
11 129.756927 0.001550 0.000119 0.530367 -4.024884 -15.379439 129.756927
[spine03]
10 78.613808 0.081580 -4.899024 1.999221 3.782333 18.012274 78.766357
11 78.613777 0.081591 -4.899026 1.999055 3.782420 18.007259 78.766327
[pelvis]
10 169.435242 0.051022 0.000000 -0.070231 -0.177775 17.203135 169.435257
11 169.435242 0.051022 0.000000 -0.070223 -0.177779 17.198137 169.435257
[null_rope03_connect]
10 -1.257226 -2.466202 137.391083 -57.104641 -81.314522 121.400505 137.418976
11 -1.257226 -2.466202 137.391083 -78.309547 -84.030441 146.571365 137.418976
[null_rope04_connect]
10 -1.259640 -2.480268 -137.844437 -57.104641 -81.314522 121.400505 137.872513
11 -1.259640 -2.480268 -137.844437 -78.309547 -84.030441 146.571365 137.872513
[Rope3_Seg01]
10 -0.000019 0.000170 -0.000104 0.310629 -3.813511 32.872868 0.000200
11 -0.000019 0.000193 -0.000098 21.031883 -13.315639 28.969883 0.000218
[Rope3_Seg02]
10 139.999924 -0.000119 0.000060 13.232573 -0.483242 16.729666 139.999924
11 139.999924 -0.000119 0.000060 4.180888 6.419686 13.440460 139.999924
[Rope3_Seg03]
10 139.999924 -0.000119 0.000119 7.832357 5.693336 26.108837 139.999924
11 139.999924 -0.000119 0.000119 4.935911 11.867025 24.082111 139.999924
[Rope3_Seg04]
10 139.999924 0.000119 0.000000 3.482708 8.950166 26.305735 139.999924
11 139.999924 0.000119 0.000000 4.510468 15.018196 28.791925 139.999924
[Rope3_Seg05]
10 139.999924 -0.000238 0.000060 0.532407 -5.466682 -7.778566 139.999924
11 139.999924 -0.000238 0.000060 -0.252716 1.560966 -7.743423 139.999924
[Rope3_Seg06]
10 139.999893 -0.000119 -0.000060 0.647444 -5.029585 -8.807699 139.999893
11 139.999893 -0.000119 -0.000060 -0.069939 -0.681545 -7.114493 139.999893
[Rope3_Seg07]
10 139.999771 0.000060 -0.000119 0.559092 -1.383901 -1.919325 139.999771
11 139.999771 0.000060 -0.000119 0.222875 0.464686 -1.555382 139.999771
[Rope3_Seg08]
10 139.999985 -0.000060 0.000000 0.563551 -0.818860 -1.110262 139.999985
11 139.999985 -0.000060 0.000000 0.360587 0.266666 -0.912464 139.999985
[Rope3_Seg09]
10 90.185997 -0.000179 -0.000060 89.793228 -1.359877 -0.847183 90.185997
11 90.185997 -0.000179 -0.000060 89.793228 -1.359877 -0.847183 90.185997
[R_rear_hand01]
10 103.366196 -6.073594 -10.757982 -165.718857 20.328495 -43.170483 104.101845
11 103.366196 -6.073594 -10.757982 -165.009155 19.819433 -41.100952 104.101845
[R_rear_hand02]
10 100.509819 12.039542 -7.992327 -29.668060 26.160355 40.761948 101.543350
11 100.509819 12.039542 -7.992327 -30.502352 25.155794 38.836960 101.543350
[R_rear_hand03]
10 101.539970 5.215704 5.435467 82.115250 -43.756119 9.334550 101.819031
11 101.539970 5.215704 5.435467 82.364594 -41.773369 8.967985 101.819031
[Rope4_Seg01]
10 0.000010 0.000038 -0.000114 -124.037231 -24.817345 134.667267 0.000121
11 0.000010 0.000038 -0.000114 -119.365288 -20.822599 138.438797 0.000121
[Rope4_Seg02]
10 139.999985 0.000060 0.000119 1.976599 10.975269 6.460852 139.999985
11 139.999985 0.000060 0.000119 -2.243356 12.049949 3.336845 139.999985
[Rope4_Seg03]
10 139.999924 0.000000 -0.000238 3.283298 29.006441 13.875094 139.999924
11 139.999924 0.000000 -0.000238 -3.157317 37.859585 6.728196 139.999924
[Rope4_Seg04]
10 139.999985 0.000000 0.000119 7.169998 39.207581 18.741400 139.999985
11 139.999985 0.000000 0.000119 4.893503 32.110535 16.619181 139.999985
[Rope4_Seg05]
10 139.999802 -0.000060 -0.000119 -8.775805 -36.598656 10.105527 139.999802
11 139.999802 -0.000060 -0.000119 -23.487139 -39.197506 41.656868 139.999802
[Rope4_Seg06]
10 139.999924 0.000000 0.000060 3.063458 -27.189751 1.882278 139.999924
11 139.999924 0.000000 0.000060 1.666269 -16.279648 12.133824 139.999924
[Rope4_Seg07]
10 139.999802 0.000000 0.000000 2.682303 -7.525519 1.753877 139.999802
11 139.999802 0.000000 0.000000 1.985961 -5.580907 5.151182 139.999802
[Rope4_Seg08]
10 139.999924 0.000000 0.000119 0.179895 -3.734821 1.059703 139.999924
11 139.999924 0.000000 0.000119 -0.398437 -2.488099 2.474048 139.999924
[Rope4_Seg09]
10 90.185791 0.000060 0.000060 -135.617828 2.228885 0.850567 90.185791
11 90.185791 0.000060 0.000060 -135.617828 2.228885 0.850567 90.185791
[L_rear_hand01]
10 101.696655 -8.392275 -7.654577 -29.575451 -26.270134 139.027252 102.329041
11 101.696655 -8.392275 -7.654577 -28.015858 -27.942150 135.607513 102.329041
[L_rear_hand02]
10 102.726799 -1.568258 5.773216 82.088585 43.973640 170.624878 102.900848
11 102.726799 -1.568258 5.773216 81.577332 47.415279 169.913010 102.900848
[L_rear_hand03]
10 104.552910 9.721220 -10.420293 -165.800003 -20.376881 -136.601608 105.519653
11 104.552910 9.721220 -10.420293 -167.078079 -21.194334 -132.993317 105.519653
